<?xml version="1.0" encoding="utf-8"?>
<!-- Generator: Adobe Illustrator 19.2.0, SVG Export Plug-In . SVG Version: 6.00 Build 0)  -->
<svg version="1.1" id="Layer_1" xmlns="http://www.w3.org/2000/svg" xmlns:xlink="http://www.w3.org/1999/xlink" x="0px" y="0px"
	 viewBox="0 0 44 50.3" style="enable-background:new 0 0 44 50.3;" xml:space="preserve">
<style type="text/css">
	.st0{fill:#306977;}
	.st1{fill:#FED900;}
</style>
<g>
	<path class="st0" d="M8.7,25.2h4.7V29h-3.3v-2.3l-3.8,3.3l3.8,3v-2.3H15v-5.3h2.2v11.1H3.8V34L0,37.2l3.8,3v-2.3h14.9V25.2h2.5
		v21.3h-2.3l3.1,3.8l3.1-3.8h-2.3V25.2h2.5v12.6h14.9v2.3l3.8-2.9L40.2,34v2.3H26.8V25.2H29v5.3h4.8v2.3l3.8-3l-3.8-3.3V29h-3.3
		v-3.8h4.7"/>
</g>
<g>
	<path class="st1" d="M22.8,25.2h2.5"/>
	<path class="st1" d="M18.7,25.2h2.5"/>
	<path class="st1" d="M15,25.2h2.2"/>
	<path class="st1" d="M30.5,25.2h4.7c4.5,0,8.2-3.7,8.2-8.2s-3.7-8.2-8.2-8.2c0,0,0,0,0,0c0-0.2,0-0.5,0-0.7c0-4.5-3.7-8.2-8.2-8.2
		C24,0,21.4,1.7,20,4.2c-0.9-0.4-2-0.6-3-0.6c-3.5,0-6.5,2.2-7.7,5.3c-0.2,0-0.4,0-0.6,0c-4.5,0-8.2,3.7-8.2,8.2s3.7,8.2,8.2,8.2
		h4.7"/>
	<path class="st1" d="M26.8,25.2H29"/>
</g>
</svg>
